<?xml version="1.0" encoding="UTF-8" standalone="no"?>
<svg
   xmlns:dc="http://purl.org/dc/elements/1.1/"
   xmlns:cc="http://creativecommons.org/ns#"
   xmlns:rdf="http://www.w3.org/1999/02/22-rdf-syntax-ns#"
   xmlns:svg="http://www.w3.org/2000/svg"
   xmlns="http://www.w3.org/2000/svg"
   viewBox="0 0 178.66667 177.33333"
   height="177.33333"
   width="178.66667"
   xml:space="preserve"
   id="svg2"
   version="1.1"><metadata
     id="metadata8"><rdf:RDF><cc:Work
         rdf:about=""><dc:format>image/svg+xml</dc:format><dc:type
           rdf:resource="http://purl.org/dc/dcmitype/StillImage" /></cc:Work></rdf:RDF></metadata><defs
     id="defs6"><clipPath
       id="clipPath20"
       clipPathUnits="userSpaceOnUse"><path
         style="clip-rule:evenodd"
         id="path18"
         d="M 671.5,0 C 380.102,0 218.109,0 112.305,105.805 6.5,211.609 6.5,373.602 6.5,665 c 0,291.398 0,453.39 105.805,559.2 C 218.109,1330 380.102,1330 671.5,1330 c 291.398,0 453.39,0 559.2,-105.8 105.8,-105.81 105.8,-267.802 105.8,-559.2 0,-291.398 0,-453.391 -105.8,-559.195 C 1124.89,0 962.898,0 671.5,0 Z m 1.469,285.402 c 146.336,0 264.961,116.09 264.961,259.297 0,143.207 -216.289,497.731 -264.961,497.731 -48.672,0 -264.961,-354.524 -264.961,-497.731 0,-143.207 118.629,-259.297 264.961,-259.297 z" /></clipPath><clipPath
       id="clipPath26"
       clipPathUnits="userSpaceOnUse"><path
         id="path24"
         d="M 0,0 H 1340 V 1330 H 0 Z" /></clipPath></defs><g
     transform="matrix(1.3333333,0,0,-1.3333333,0,177.33333)"
     id="g10"><g
       transform="scale(0.1)"
       id="g12"><g
         id="g14"><g
           clip-path="url(#clipPath20)"
           id="g16"><g
             clip-path="url(#clipPath26)"
             id="g22"><path
               id="path28"
               style="fill:#ffffff;fill-opacity:1;fill-rule:nonzero;stroke:none"
               d="M 0,0 H 1386.5 V 1380 H 0 Z" /></g></g></g></g></g></svg>