<?xml version="1.0" encoding="UTF-8" standalone="no"?>
<svg
   xmlns:dc="http://purl.org/dc/elements/1.1/"
   xmlns:cc="http://creativecommons.org/ns#"
   xmlns:rdf="http://www.w3.org/1999/02/22-rdf-syntax-ns#"
   xmlns:svg="http://www.w3.org/2000/svg"
   xmlns="http://www.w3.org/2000/svg"
   viewBox="0 0 305.33334 100"
   height="100"
   width="305.33334"
   xml:space="preserve"
   id="svg2"
   version="1.1"><metadata
     id="metadata8"><rdf:RDF><cc:Work
         rdf:about=""><dc:format>image/svg+xml</dc:format><dc:type
           rdf:resource="http://purl.org/dc/dcmitype/StillImage" /></cc:Work></rdf:RDF></metadata><defs
     id="defs6"><clipPath
       id="clipPath20"
       clipPathUnits="userSpaceOnUse"><path
         style="clip-rule:evenodd"
         id="path18"
         d="M 375.41,0 C 210.906,0 119.457,0 59.7305,59.6641 0,119.328 0,210.676 0,375 0,539.324 0,630.672 59.7305,690.336 119.457,750 210.906,750 375.41,750 c 164.504,0 255.953,0 315.68,-59.664 59.73,-59.664 59.73,-151.012 59.73,-315.336 0,-164.324 0,-255.672 -59.73,-315.3359 C 631.363,0 539.914,0 375.41,0 Z m 0.828,160.941 c 82.61,0 149.578,65.465 149.578,146.219 0,80.758 -122.101,280.676 -149.578,280.676 -27.476,0 -149.574,-199.918 -149.574,-280.676 0,-80.754 66.965,-146.219 149.574,-146.219 z" /></clipPath><clipPath
       id="clipPath26"
       clipPathUnits="userSpaceOnUse"><path
         id="path24"
         d="M 0,0 H 2290 V 750 H 0 Z" /></clipPath><clipPath
       id="clipPath36"
       clipPathUnits="userSpaceOnUse"><path
         style="clip-rule:evenodd"
         id="path34"
         d="M 938.523,157.5 V 595 H 1047.39 C 1116.22,595 1150,556.875 1150,486.875 v -221.25 c 0,-70 -33.78,-108.125 -102.61,-108.125 z m 107.617,375 h -38.79 V 220 h 38.79 c 21.9,0 35.04,11.25 35.04,42.5 V 490 c 0,31.25 -13.14,42.5 -35.04,42.5 z m 392.93,-375 H 1369 c -3.76,11.25 -6.26,18.125 -6.26,53.75 V 280 c 0,40.625 -13.77,55.625 -45.05,55.625 h -23.78 V 157.5 h -68.82 V 595 h 103.86 c 71.33,0 101.99,-33.125 101.99,-100.625 V 460 c 0,-45 -14.39,-74.375 -45.05,-88.75 34.41,-14.375 45.67,-47.5 45.67,-93.125 v -67.5 c 0,-21.25 0.63,-36.875 7.51,-53.125 z m -112,375 h -33.16 V 398.125 h 26.91 c 25.65,0 41.29,11.25 41.29,46.25 V 487.5 c 0,31.25 -10.63,45 -35.04,45 z m 180.82,-375 h 68.83 V 595 h -68.83 z M 1759.42,595 c 68.83,0 102.61,-38.125 102.61,-108.125 V 430 c 0,-70 -33.78,-108.125 -102.61,-108.125 h -32.53 V 157.5 h -68.83 V 595 Z m 0,-62.5 h -32.53 V 384.375 h 32.53 c 21.9,0 33.79,10 33.79,41.25 v 65.625 c 0,31.25 -11.89,41.25 -33.79,41.25 z m 168.94,-375 h 68.82 V 595 h -68.82 z m 213.35,336.875 v -236.25 c 0,-31.25 13.77,-43.125 35.67,-43.125 21.9,0 35.66,11.875 35.66,43.125 v 236.25 c 0,31.25 -13.76,43.125 -35.66,43.125 -21.9,0 -35.67,-11.875 -35.67,-43.125 z M 2072.89,262.5 V 490 c 0,70 36.91,110 104.49,110 67.57,0 104.49,-40 104.49,-110 V 262.5 c 0,-70 -36.92,-110 -104.49,-110 -67.58,0 -104.49,40 -104.49,110 z" /></clipPath><clipPath
       id="clipPath42"
       clipPathUnits="userSpaceOnUse"><path
         id="path40"
         d="M 0,0 H 2290 V 750 H 0 Z" /></clipPath></defs><g
     transform="matrix(1.3333333,0,0,-1.3333333,0,100)"
     id="g10"><g
       transform="scale(0.1)"
       id="g12"><g
         id="g14"><g
           clip-path="url(#clipPath20)"
           id="g16"><g
             clip-path="url(#clipPath26)"
             id="g22"><path
               id="path28"
               style="fill:#ffffff;fill-opacity:1;fill-rule:nonzero;stroke:none"
               d="M 0,0 H 800.82 V 800 H 0 Z" /></g></g></g><g
         id="g30"><g
           clip-path="url(#clipPath36)"
           id="g32"><g
             clip-path="url(#clipPath42)"
             id="g38"><path
               id="path44"
               style="fill:#ffffff;fill-opacity:1;fill-rule:nonzero;stroke:none"
               d="m 888.523,102.5 h 1443.34 V 650 H 888.523 Z" /></g></g></g></g></g></svg>