<?xml version="1.0" encoding="UTF-8" standalone="no"?>
<svg
   xmlns:dc="http://purl.org/dc/elements/1.1/"
   xmlns:cc="http://creativecommons.org/ns#"
   xmlns:rdf="http://www.w3.org/1999/02/22-rdf-syntax-ns#"
   xmlns:svg="http://www.w3.org/2000/svg"
   xmlns="http://www.w3.org/2000/svg"
   viewBox="0 0 177.33333 177.33333"
   height="177.33333"
   width="177.33333"
   xml:space="preserve"
   id="svg2"
   version="1.1"><metadata
     id="metadata8"><rdf:RDF><cc:Work
         rdf:about=""><dc:format>image/svg+xml</dc:format><dc:type
           rdf:resource="http://purl.org/dc/dcmitype/StillImage" /></cc:Work></rdf:RDF></metadata><defs
     id="defs6"><clipPath
       id="clipPath20"
       clipPathUnits="userSpaceOnUse"><path
         style="clip-rule:evenodd"
         id="path18"
         d="M 665,0 C 373.602,0 211.609,0 105.805,105.805 0,211.609 0,373.602 0,665 0,956.398 0,1118.39 105.805,1224.2 211.609,1330 373.602,1330 665,1330 c 291.398,0 453.39,0 559.2,-105.8 C 1330,1118.39 1330,956.398 1330,665 1330,373.602 1330,211.609 1224.2,105.805 1118.39,0 956.398,0 665,0 Z m 1.469,285.402 c 146.336,0 264.961,116.09 264.961,259.297 0,143.207 -216.289,497.731 -264.961,497.731 -48.672,0 -264.961,-354.524 -264.961,-497.731 0,-143.207 118.629,-259.297 264.961,-259.297 z" /></clipPath><clipPath
       id="clipPath26"
       clipPathUnits="userSpaceOnUse"><path
         id="path24"
         d="M 0,0 H 1330 V 1330 H 0 Z" /></clipPath></defs><g
     transform="matrix(1.3333333,0,0,-1.3333333,0,177.33333)"
     id="g10"><g
       transform="scale(0.1)"
       id="g12"><g
         id="g14"><g
           clip-path="url(#clipPath20)"
           id="g16"><g
             clip-path="url(#clipPath26)"
             id="g22"><path
               id="path28"
               style="fill:#2e4c9a;fill-opacity:1;fill-rule:nonzero;stroke:none"
               d="M 0,0 H 1380 V 1380 H 0 Z" /></g></g></g></g></g></svg>